/* XPM */
static char *_0b2e1c72caa4f0e9665fc6dfc8bd097Q1780afcdLBuVx4z[] = {
/* columns rows colors chars-per-pixel */
"64 64 12 1 ",
"  c #A8A65E",
". c #BAB76A",
"X c #B6B461",
"o c #B8B67D",
"O c #C2C191",
"+ c #B3B172",
"@ c #F1F0E4",
"# c #F6F6ED",
"$ c #EEEEDF",
"% c #BAB880",
"& c #EAE9D8",
"* c #AFAD6C",
/* pixels */
"                                                                ",
" ..............  XXXXXXXXXXXXXX  XXXXXXXXXXXXXX  XXXXXXXXXXXXXX ",
" ..............  XXXXXXXXXXXXXX  XXXXXXXXXXXXXX  XXXXXXXXXXXXXX ",
" ..............  XXXXXXXXXXXXXX  XXXXXXXXXXXXXX  XXXXXXXXXXXXXX ",
" ..............  XXXXXXXXXXXXXX  XXXXXXXXXXXXXX  XXXXXXXXXXXXXX ",
" ..............  XXXXXXXXXXXXXX  XXXXXXXXXXXXXX  XXXXXXXXXXXXXX ",
" ..............  XXXXXXXXXXXXXX  XXXXXXXXXXXXXX  XXXXXXXXXXXXXX ",
" ..............  XXXXXXXXXXXXXX  XXXXXXXXXXXXXX  XXXXXXXXXXXXXX ",
" ..............  XXXXXXXXXXXXXX  XXXXXXXXXXXXXX  XXXXXXXXXXXXXX ",
" ..............  XXXXXXXXXXXXXX  XXXXXXXXXXXXXX  XXXXXXXXXXXXXX ",
" ..............  XXXXXXXXXXXXXX  XXXXXXXXXXXXXX  XXXXXXXXXXXXXX ",
" ..............  XXXXXXXXXXXXXX  XXXXXXXXXXXXXX  XXXXXXXXXXXXXX ",
" ..............  XXXXXXXXXXXXXX  XXXXXXXXXXXXXX  XXXXXXXXXXXXXX ",
" ..............  XXXXXXXXXXXXXX  XXXXXXXXXXXXXX  XXXXXXXXXXXXXX ",
" ..............  XXXXXXXXXXXXXX  XXXXXXXXXXXXXX  XXXXXXXXXXXXXX ",
"                                                                ",
"                oOOOOOOOOOOOOOO+oOOOOOOOOOOOOOO+                ",
" XXXXXXXXXXXXXX O@############$%O@############$% .............. ",
" XXXXXXXXXXXXXX O##############%O##############% .............. ",
" XXXXXXXXXXXXXX O##############%O##############% .............. ",
" XXXXXXXXXXXXXX O##############%O##############% .............. ",
" XXXXXXXXXXXXXX O##############%O##############% .............. ",
" XXXXXXXXXXXXXX O##############%O##############% .............. ",
" XXXXXXXXXXXXXX O##############%O##############% .............. ",
" XXXXXXXXXXXXXX O##############%O##############% .............. ",
" XXXXXXXXXXXXXX O##############%O##############% .............. ",
" XXXXXXXXXXXXXX O##############%O##############% .............. ",
" XXXXXXXXXXXXXX O##############%O##############% .............. ",
" XXXXXXXXXXXXXX O##############%O##############% .............. ",
" XXXXXXXXXXXXXX O##############%O##############% .............. ",
" XXXXXXXXXXXXXX O$############&%O$############&% .............. ",
"                +%%%%%%%%%%%%%%*+%%%%%%%%%%%%%%*                ",
"                oOOOOOOOOOOOOOO+oOOOOOOOOOOOOOO+                ",
" XXXXXXXXXXXXXX O@############$%O@############$% XXXXXXXXXXXXXX ",
" XXXXXXXXXXXXXX O##############%O##############% XXXXXXXXXXXXXX ",
" XXXXXXXXXXXXXX O##############%O##############% XXXXXXXXXXXXXX ",
" XXXXXXXXXXXXXX O##############%O##############% XXXXXXXXXXXXXX ",
" XXXXXXXXXXXXXX O##############%O##############% XXXXXXXXXXXXXX ",
" XXXXXXXXXXXXXX O##############%O##############% XXXXXXXXXXXXXX ",
" XXXXXXXXXXXXXX O##############%O##############% XXXXXXXXXXXXXX ",
" XXXXXXXXXXXXXX O##############%O##############% XXXXXXXXXXXXXX ",
" XXXXXXXXXXXXXX O##############%O##############% XXXXXXXXXXXXXX ",
" XXXXXXXXXXXXXX O##############%O##############% XXXXXXXXXXXXXX ",
" XXXXXXXXXXXXXX O##############%O##############% XXXXXXXXXXXXXX ",
" XXXXXXXXXXXXXX O##############%O##############% XXXXXXXXXXXXXX ",
" XXXXXXXXXXXXXX O##############%O##############% XXXXXXXXXXXXXX ",
" XXXXXXXXXXXXXX O$############&%O$############&% XXXXXXXXXXXXXX ",
"                +%%%%%%%%%%%%%%*+%%%%%%%%%%%%%%*                ",
"                                                                ",
" XXXXXXXXXXXXXX  XXXXXXXXXXXXXX  ..............  XXXXXXXXXXXXXX ",
" XXXXXXXXXXXXXX  XXXXXXXXXXXXXX  ..............  XXXXXXXXXXXXXX ",
" XXXXXXXXXXXXXX  XXXXXXXXXXXXXX  ..............  XXXXXXXXXXXXXX ",
" XXXXXXXXXXXXXX  XXXXXXXXXXXXXX  ..............  XXXXXXXXXXXXXX ",
" XXXXXXXXXXXXXX  XXXXXXXXXXXXXX  ..............  XXXXXXXXXXXXXX ",
" XXXXXXXXXXXXXX  XXXXXXXXXXXXXX  ..............  XXXXXXXXXXXXXX ",
" XXXXXXXXXXXXXX  XXXXXXXXXXXXXX  ..............  XXXXXXXXXXXXXX ",
" XXXXXXXXXXXXXX  XXXXXXXXXXXXXX  ..............  XXXXXXXXXXXXXX ",
" XXXXXXXXXXXXXX  XXXXXXXXXXXXXX  ..............  XXXXXXXXXXXXXX ",
" XXXXXXXXXXXXXX  XXXXXXXXXXXXXX  ..............  XXXXXXXXXXXXXX ",
" XXXXXXXXXXXXXX  XXXXXXXXXXXXXX  ..............  XXXXXXXXXXXXXX ",
" XXXXXXXXXXXXXX  XXXXXXXXXXXXXX  ..............  XXXXXXXXXXXXXX ",
" XXXXXXXXXXXXXX  XXXXXXXXXXXXXX  ..............  XXXXXXXXXXXXXX ",
" XXXXXXXXXXXXXX  XXXXXXXXXXXXXX  ..............  XXXXXXXXXXXXXX ",
"                                                                "
};
