/* XPM */
static char *_4956c9e004d480496093ee14fc00904rlDA7gJIngOqQ8yS[] = {
/* columns rows colors chars-per-pixel */
"64 64 3 1 ",
"  c #A8A65E",
". c #BAB76A",
"X c #B6B461",
/* pixels */
"                                                                ",
" ..............  XXXXXXXXXXXXXX  XXXXXXXXXXXXXX  XXXXXXXXXXXXXX ",
" ..............  XXXXXXXXXXXXXX  XXXXXXXXXXXXXX  XXXXXXXXXXXXXX ",
" ..............  XXXXXXXXXXXXXX  XXXXXXXXXXXXXX  XXXXXXXXXXXXXX ",
" ..............  XXXXXXXXXXXXXX  XXXXXXXXXXXXXX  XXXXXXXXXXXXXX ",
" ..............  XXXXXXXXXXXXXX  XXXXXXXXXXXXXX  XXXXXXXXXXXXXX ",
" ..............  XXXXXXXXXXXXXX  XXXXXXXXXXXXXX  XXXXXXXXXXXXXX ",
" ..............  XXXXXXXXXXXXXX  XXXXXXXXXXXXXX  XXXXXXXXXXXXXX ",
" ..............  XXXXXXXXXXXXXX  XXXXXXXXXXXXXX  XXXXXXXXXXXXXX ",
" ..............  XXXXXXXXXXXXXX  XXXXXXXXXXXXXX  XXXXXXXXXXXXXX ",
" ..............  XXXXXXXXXXXXXX  XXXXXXXXXXXXXX  XXXXXXXXXXXXXX ",
" ..............  XXXXXXXXXXXXXX  XXXXXXXXXXXXXX  XXXXXXXXXXXXXX ",
" ..............  XXXXXXXXXXXXXX  XXXXXXXXXXXXXX  XXXXXXXXXXXXXX ",
" ..............  XXXXXXXXXXXXXX  XXXXXXXXXXXXXX  XXXXXXXXXXXXXX ",
" ..............  XXXXXXXXXXXXXX  XXXXXXXXXXXXXX  XXXXXXXXXXXXXX ",
"                                                                ",
"                                                                ",
" XXXXXXXXXXXXXX  XXXXXXXXXXXXXX  XXXXXXXXXXXXXX  .............. ",
" XXXXXXXXXXXXXX  XXXXXXXXXXXXXX  XXXXXXXXXXXXXX  .............. ",
" XXXXXXXXXXXXXX  XXXXXXXXXXXXXX  XXXXXXXXXXXXXX  .............. ",
" XXXXXXXXXXXXXX  XXXXXXXXXXXXXX  XXXXXXXXXXXXXX  .............. ",
" XXXXXXXXXXXXXX  XXXXXXXXXXXXXX  XXXXXXXXXXXXXX  .............. ",
" XXXXXXXXXXXXXX  XXXXXXXXXXXXXX  XXXXXXXXXXXXXX  .............. ",
" XXXXXXXXXXXXXX  XXXXXXXXXXXXXX  XXXXXXXXXXXXXX  .............. ",
" XXXXXXXXXXXXXX  XXXXXXXXXXXXXX  XXXXXXXXXXXXXX  .............. ",
" XXXXXXXXXXXXXX  XXXXXXXXXXXXXX  XXXXXXXXXXXXXX  .............. ",
" XXXXXXXXXXXXXX  XXXXXXXXXXXXXX  XXXXXXXXXXXXXX  .............. ",
" XXXXXXXXXXXXXX  XXXXXXXXXXXXXX  XXXXXXXXXXXXXX  .............. ",
" XXXXXXXXXXXXXX  XXXXXXXXXXXXXX  XXXXXXXXXXXXXX  .............. ",
" XXXXXXXXXXXXXX  XXXXXXXXXXXXXX  XXXXXXXXXXXXXX  .............. ",
" XXXXXXXXXXXXXX  XXXXXXXXXXXXXX  XXXXXXXXXXXXXX  .............. ",
"                                                                ",
"                                                                ",
" XXXXXXXXXXXXXX  ..............  XXXXXXXXXXXXXX  XXXXXXXXXXXXXX ",
" XXXXXXXXXXXXXX  ..............  XXXXXXXXXXXXXX  XXXXXXXXXXXXXX ",
" XXXXXXXXXXXXXX  ..............  XXXXXXXXXXXXXX  XXXXXXXXXXXXXX ",
" XXXXXXXXXXXXXX  ..............  XXXXXXXXXXXXXX  XXXXXXXXXXXXXX ",
" XXXXXXXXXXXXXX  ..............  XXXXXXXXXXXXXX  XXXXXXXXXXXXXX ",
" XXXXXXXXXXXXXX  ..............  XXXXXXXXXXXXXX  XXXXXXXXXXXXXX ",
" XXXXXXXXXXXXXX  ..............  XXXXXXXXXXXXXX  XXXXXXXXXXXXXX ",
" XXXXXXXXXXXXXX  ..............  XXXXXXXXXXXXXX  XXXXXXXXXXXXXX ",
" XXXXXXXXXXXXXX  ..............  XXXXXXXXXXXXXX  XXXXXXXXXXXXXX ",
" XXXXXXXXXXXXXX  ..............  XXXXXXXXXXXXXX  XXXXXXXXXXXXXX ",
" XXXXXXXXXXXXXX  ..............  XXXXXXXXXXXXXX  XXXXXXXXXXXXXX ",
" XXXXXXXXXXXXXX  ..............  XXXXXXXXXXXXXX  XXXXXXXXXXXXXX ",
" XXXXXXXXXXXXXX  ..............  XXXXXXXXXXXXXX  XXXXXXXXXXXXXX ",
" XXXXXXXXXXXXXX  ..............  XXXXXXXXXXXXXX  XXXXXXXXXXXXXX ",
"                                                                ",
"                                                                ",
" XXXXXXXXXXXXXX  XXXXXXXXXXXXXX  ..............  XXXXXXXXXXXXXX ",
" XXXXXXXXXXXXXX  XXXXXXXXXXXXXX  ..............  XXXXXXXXXXXXXX ",
" XXXXXXXXXXXXXX  XXXXXXXXXXXXXX  ..............  XXXXXXXXXXXXXX ",
" XXXXXXXXXXXXXX  XXXXXXXXXXXXXX  ..............  XXXXXXXXXXXXXX ",
" XXXXXXXXXXXXXX  XXXXXXXXXXXXXX  ..............  XXXXXXXXXXXXXX ",
" XXXXXXXXXXXXXX  XXXXXXXXXXXXXX  ..............  XXXXXXXXXXXXXX ",
" XXXXXXXXXXXXXX  XXXXXXXXXXXXXX  ..............  XXXXXXXXXXXXXX ",
" XXXXXXXXXXXXXX  XXXXXXXXXXXXXX  ..............  XXXXXXXXXXXXXX ",
" XXXXXXXXXXXXXX  XXXXXXXXXXXXXX  ..............  XXXXXXXXXXXXXX ",
" XXXXXXXXXXXXXX  XXXXXXXXXXXXXX  ..............  XXXXXXXXXXXXXX ",
" XXXXXXXXXXXXXX  XXXXXXXXXXXXXX  ..............  XXXXXXXXXXXXXX ",
" XXXXXXXXXXXXXX  XXXXXXXXXXXXXX  ..............  XXXXXXXXXXXXXX ",
" XXXXXXXXXXXXXX  XXXXXXXXXXXXXX  ..............  XXXXXXXXXXXXXX ",
" XXXXXXXXXXXXXX  XXXXXXXXXXXXXX  ..............  XXXXXXXXXXXXXX ",
"                                                                "
};
